<svg id="Layer_1" data-name="Layer 1" xmlns="http://www.w3.org/2000/svg" viewBox="0 0 807.82 170.59" style=" fill: #666666; stroke: #666666;"><defs><style>.cls-1{fill:#666666;  stroke: #666666;}</style></defs><title>Logo</title><path class="cls-1" d="M76.5.49,0,43.15V64.49L76,21.82V43.15l-57,32V53.82L0,64.49v64L19.72,139h.1l57.4,32.08,19.14-10.63,38.25-21.31L115.5,128.48,77.27,149.82,39,128.49l38.24-21.33L96.39,96.49l18.3,10.67L133,117.82V96.49L114.69,85.82,96,75.15l-.61-42.67L133,53.82v64l20,10.67V43.15ZM19,117.82V96.49l57-32V85.82Z" transform="translate(0 -0.49)"/><path d="M196.51,117.48h31.32V127H196.51v11.15h-8.14V106.33h8.14Z" transform="translate(0 -0.49)"/><path d="M227.83,78h-16.5V93.38h16.5v9.53H188.37V93.38h14.94V78H188.37V68.47h39.46Z" transform="translate(0 -0.49)"/><path d="M227.83,60.94H188.37V33.41h8V51.75h7.47V35.36h7.64V51.75h8.19V33.41h8.14Z" transform="translate(0 -0.49)"/><path d="M351.16,85.49q0,13.76-5.1,23.74a47.89,47.89,0,0,1-13.46,16.42,56.11,56.11,0,0,1-18.86,9.47,76.41,76.41,0,0,1-21.3,3H253.38V33.41h37.87A93.72,93.72,0,0,1,313.14,36a55,55,0,0,1,19.23,8.58A43.94,43.94,0,0,1,346,60.63Q351.16,70.7,351.16,85.49Zm-26.33,0q0-8.88-2.88-14.72a24.8,24.8,0,0,0-7.69-9.32,30.83,30.83,0,0,0-10.95-5A53.91,53.91,0,0,0,290.66,55H278.08v61.25h12a54.43,54.43,0,0,0,13.09-1.55,31,31,0,0,0,11.1-5.1,25.29,25.29,0,0,0,7.69-9.47Q324.83,94.22,324.83,85.49Z" transform="translate(0 -0.49)"/><path d="M365.84,138.15V33.41h25.45V138.15Z" transform="translate(0 -0.49)"/><path d="M410.12,138.15V33.41H483.2v21.3H434.53V74.54H478V94.81H434.53v21.75H483.2v21.6Z" transform="translate(0 -0.49)"/><path d="M499.13,138.15V33.41h25.45v82.7h40.54v22Z" transform="translate(0 -0.49)"/><path d="M574.3,138V33.26h25.45V138Z" transform="translate(0 -0.49)"/><path d="M686.16,138.15,644,69.66h-.44l.59,68.5H619.58V33.41h28.85l42,68.35h.44l-.59-68.35h24.56V138.15Z" transform="translate(0 -0.49)"/><path d="M734.74,138.15V33.41h73.08v21.3H759.15V74.54h43.49V94.81H759.15v21.75h48.67v21.6Z" transform="translate(0 -0.49)"/></svg>