<?xml version="1.0" encoding="utf-8"?>
<!-- Generator: Adobe Illustrator 19.2.1, SVG Export Plug-In . SVG Version: 6.00 Build 0)  -->
<svg version="1.1" id="Layer_1" xmlns="http://www.w3.org/2000/svg" xmlns:xlink="http://www.w3.org/1999/xlink" x="0px" y="0px"
	 viewBox="0 0 6632.1 1585.6" style=" fill: #666666; stroke: #666666;" xml:space="preserve">
<title>whitelogo</title>
<path d="M6012.9,598.7c179.4,0,337.9,75.4,364.4,209.9h-727.2C5678.6,672.1,5831.5,598.7,6012.9,598.7 M2352.6,1403.4
	c390.9,0,649.8-146.8,649.8-409.3c0-358.3-468.4-360.4-723.2-372.6c-85.6-4.1-423.5-4.1-423.5-136.6
	c0-130.4,254.8-177.3,425.6-177.3c252.7,0,454.1,77.5,568.3,165.1l118.2-165.1c-144.7-99.9-360.8-185.5-690.6-185.5
	c-360.4-2-655.9,114.1-655.9,378.7c0,311.4,435.8,317.6,657.9,329.8c112.1,8.2,496.9-8.2,496.9,169.2c0,150.8-201.8,214-423.5,214
	c-384.8,0-598.8-138.6-653.9-183.4l-120.3,183.4C1796.6,1368.7,2029,1403.4,2352.6,1403.4 M3462.7,1401.3
	c114.1,0,281.3-42.8,281.3-42.8l-53-189.6c0,0-91.7,36.7-185.5,36.7c-89.7,0-120.3-22.4-120.3-97.8l-2-492.8h303.7V429.5h-303.7
	V197.2H3161v232.4h-159V615h159v497.3c0,209.9,97.8,289,301.7,291.1V1401.3L3462.7,1401.3z M4371.7,1585.6l644.9-1156.1H4772
	l-382.8,704.8l-368.5-704.8h-265l507.5,927l-132.9,229.1H4371.7L4371.7,1585.6z M5085.9,1368.7h226.2V30h-226.2V1368.7z
	 M5648.5,989.6h983.6c-2-405.2-277.2-584.6-619.2-586.6c-364.8-2-609,201.8-609,499.4s220.1,499,609,499
	c289.4-2,450-65.2,582.5-171.2l-116.2-152.9c-71.3,61.1-193.6,126.4-466.3,126.4C5858,1205.7,5676.6,1142.5,5648.5,989.6
	 M44.2,1366.7h227.1V30H44.2V1366.7L44.2,1366.7z M1269.1,1366.7H1530V798.4c-2-287.4-144.7-409.7-513.2-409.7
	c-189.6,0-313.5,59.1-374.6,91.7v-67.3H395.5v953.5h254.8V716.9c22.4-20.4,163.1-106,356.3-106c220.1,0,265,61.1,265,262.9
	L1269.1,1366.7z"/>
</svg>
