
<svg id="nylon-logo"  xmlns="http://www.w3.org/2000/svg" viewBox="0 0 263.78 44.68" width="100%" height="100%" style=" fill: #666666; stroke: #666666;">
    <path d="M0 0v44.18h14.75V26.3s.28-.43-1-4.83c0 0 .21-.35.42-.28l13.91 23h14.84V0H28.1v18.72A22.74 22.74 0 0 0 29.27 24s-.21.31-.52 0l-14-24zM220.86 0v44.18h14.75V26.3s.28-.43-1-4.83c0 0 .21-.35.42-.28l13.91 23h14.82V0H249v18.72a22.76 22.76 0 0 0 1.17 5.3s-.21.31-.52 0l-14-24zM57.15 0l15.24 25.17v19h15.24v-19L102.45 0H84.56L80.5 11.54s-.21 1.19-.77 0L74.77 0zM117.4.01v44.17h28.52V30.34h-13.56V.01H117.4zM172.84 22.34c0 4.91 3.72 8.9 8.3 8.9s8.3-4 8.3-8.9-3.72-8.9-8.3-8.9-8.3 4-8.3 8.9zm8.3 22.34c-13.21 0-23.92-10-23.92-22.34S167.93 0 181.14 0s23.92 10 23.92 22.34-10.71 22.34-23.92 22.34z"></path>
</svg>