<?xml version="1.0" encoding="utf-8"?>
<!-- Generator: Adobe Illustrator 17.0.0, SVG Export Plug-In . SVG Version: 6.00 Build 0)  -->
<!DOCTYPE svg PUBLIC "-//W3C//DTD SVG 1.1//EN" "http://www.w3.org/Graphics/SVG/1.1/DTD/svg11.dtd">
<svg version="1.1" id="Layer_1" xmlns="http://www.w3.org/2000/svg" xmlns:xlink="http://www.w3.org/1999/xlink" x="0px" y="0px"
	 width="156px" height="26.063px" viewBox="0 4 156 26.063" enable-background="new 0 4 156 26.063" xml:space="preserve">
<g>
	<g>
		<path fill="#666666" d="M5.133,8.997h6.946h0.376c3.422,0,5.612,1.985,5.612,5.064c0,1.642-0.855,3.319-2.19,4.277l-0.171,0.103
			l2.806,7.083h-3.764l-2.566-6.228H8.657v6.228H5.133V8.997z M12.25,15.772c1.471,0,2.429-0.616,2.429-1.608
			c0-1.095-0.821-1.677-2.293-1.677h-0.274H8.657v3.285H12.25z"/>
		<path fill="#666666" d="M21.078,8.997h12.113v3.388h-8.555v2.566h4.654v3.422h-4.654v3.764h8.76v3.422H21.078V8.997z"/>
		<path fill="#666666" d="M34.834,25.524l7.015-16.527h2.84l6.912,16.527h-3.661l-1.608-3.696h-6.262l-1.608,3.696H34.834z
			 M44.962,18.441l-1.711-4.072l-1.711,4.072H44.962z"/>
		<path fill="#666666" d="M53.585,8.997h3.524v13.14h8.76v3.388H53.585V8.997z"/>
	</g>
	<g>
		<path fill="#666666" d="M71.071,19.878c1.642,1.95,2.635,2.532,4.277,2.532c1.677,0,2.874-0.753,2.874-1.882
			c0-0.924-0.719-1.437-2.84-1.882c-2.874-0.65-4.072-1.3-4.927-2.601c-0.445-0.684-0.65-1.506-0.65-2.361
			c0-2.806,2.258-4.825,5.441-4.825c2.464,0,4.927,1.232,6.365,3.216l-2.498,2.122c-1.677-1.54-2.464-1.916-3.901-1.916
			c-1.266,0-2.053,0.513-2.053,1.266c0,0.719,0.513,1.095,1.916,1.437c0.376,0.103,0.855,0.24,1.506,0.445l2.087,0.65
			c1.711,0.547,2.977,2.361,2.977,4.346c0,3.045-2.601,5.27-6.091,5.27c-1.814,0-3.832-0.65-5.133-1.745
			c-0.445-0.376-0.958-0.89-1.677-1.642c-0.24-0.24-0.274-0.274-0.513-0.547L71.071,19.878z"/>
		<path fill="#666666" d="M84.313,8.997h3.49v16.527h-3.49C84.313,25.524,84.313,8.997,84.313,8.997z"/>
		<path fill="#666666" d="M90.746,8.997h3.251l4.175,8.897l4.243-8.897h3.422l-0.034,16.527h-3.456v-8.349l-4.209,8.349
			l-3.935-8.281v8.281h-3.456L90.746,8.997L90.746,8.997z"/>
		<path fill="#666666" d="M108.848,8.997h7.357h0.342c3.251,0,5.509,2.087,5.509,5.098s-2.361,5.201-5.612,5.201h-0.308h-3.798
			v6.228h-3.524V8.997H108.848z M116.102,15.806h0.274c1.437,0,2.293-0.616,2.293-1.677c0-1.027-0.821-1.642-2.224-1.642h-0.274
			h-3.867v3.353h3.798V15.806z"/>
		<path fill="#666666" d="M124.417,8.997h3.524v13.14h8.76v3.388h-12.284V8.997z"/>
		<path fill="#666666" d="M139.131,8.997h12.113v3.388h-8.555v2.566h4.654v3.422h-4.654v3.764h8.76v3.422h-12.318V8.997z"/>
	</g>
</g>
</svg>
