<?xml version="1.0" encoding="utf-8"?>
<!-- Generator: Adobe Illustrator 17.0.0, SVG Export Plug-In . SVG Version: 6.00 Build 0)  -->
<!DOCTYPE svg PUBLIC "-//W3C//DTD SVG 1.1//EN" "http://www.w3.org/Graphics/SVG/1.1/DTD/svg11.dtd">
<svg version="1.1" id="Layer_1" xmlns="http://www.w3.org/2000/svg" xmlns:xlink="http://www.w3.org/1999/xlink" x="0px" y="0px"
	 width="100px" height="100px" viewBox="0 0 100 100" enable-background="new 0 0 100 100" xml:space="preserve">
<path d="M42.101,46.101c0.398-0.199,0.602-0.5,0.602-0.898l-0.004-13.305h14v3.199L52,35.101c-0.602,0-1,0.398-1,1
	c0,0.602,0.398,1,1,1h4.699v3.102L52,40.198c-0.602,0-1,0.398-1,1s0.398,1,1,1h4.699v2.898c0,0.398,0.301,0.801,0.602,0.898
	c8,3.199,13.199,10.801,13.199,19.398c0,11.5-9.398,20.898-20.898,20.898c-11.5,0.008-20.801-9.293-20.801-20.793
	C28.801,56.897,34,49.197,42.101,46.101L42.101,46.101z M49.699,88.398c12.602,0,22.898-10.301,22.898-22.898
	c0-9.199-5.398-17.398-13.898-21V31.898h1.5c0.602,0,1-0.398,1-1c0-0.602-0.398-1-1-1h-21c-0.602,0-1,0.398-1,1c0,0.602,0.398,1,1,1
	h1.5v12.5c-8.398,3.602-13.898,11.801-13.898,21C26.801,78.101,37.102,88.398,49.699,88.398z"/>
<path d="M34.5,60.801h30.398c0.5,1.602,0.801,3.301,0.801,4.898c0,8.801-7.199,16-16,16s-16-7.199-16-16
	C33.699,64,34,62.399,34.5,60.801L34.5,60.801z M49.699,83.699c9.898,0,18-8.102,18-18c0-2.102-0.398-4.199-1.102-6.301
	c-0.102-0.398-0.5-0.699-0.898-0.699H33.801c-0.398,0-0.801,0.301-0.898,0.699c-0.801,2-1.102,4.102-1.102,6.301
	C31.699,75.601,39.801,83.699,49.699,83.699L49.699,83.699z"/>
<path d="M38.699,16.8c1.398,0,2.5,1.102,2.5,2.5s-1.102,2.5-2.5,2.5c-1.398,0-2.5-1.102-2.5-2.5
	C36.199,17.898,37.301,16.8,38.699,16.8z M38.699,23.898c2.5,0,4.5-2,4.5-4.5s-2-4.5-4.5-4.5s-4.5,2-4.5,4.5
	S36.199,23.898,38.699,23.898z"/>
<path d="M54.102,23c0-1.398,1.102-2.5,2.5-2.5s2.5,1.102,2.5,2.5s-1.102,2.5-2.5,2.5C55.2,25.5,54.102,24.398,54.102,23z M61.102,23
	c0-2.5-2-4.5-4.5-4.5s-4.5,2-4.5,4.5s2,4.5,4.5,4.5S61.102,25.5,61.102,23z"/>
<path d="M70.601,43.699c-1.398,0-2.5-1.102-2.5-2.5c0-1.398,1.102-2.5,2.5-2.5s2.5,1.102,2.5,2.5
	C73.101,42.601,72,43.699,70.601,43.699z M75.199,41.199c0-2.5-2-4.5-4.5-4.5s-4.5,2-4.5,4.5s2,4.5,4.5,4.5
	S75.199,43.699,75.199,41.199z"/>
<path d="M28.301,14c0.898,0,1.602,0.699,1.602,1.602c0,0.898-0.699,1.602-1.602,1.602c-0.898,0-1.602-0.699-1.602-1.602
	C26.699,14.801,27.5,14,28.301,14z M28.301,19.199c2,0,3.602-1.602,3.602-3.602s-1.602-3.602-3.602-3.602s-3.602,1.602-3.602,3.602
	C24.699,17.601,26.399,19.199,28.301,19.199z"/>
<path d="M63.699,16.5c0-0.898,0.699-1.602,1.602-1.602c0.898,0,1.602,0.699,1.602,1.602c0,0.898-0.699,1.602-1.602,1.602
	C64.5,18.102,63.699,17.398,63.699,16.5z M68.898,16.5c0-2-1.602-3.602-3.602-3.602c-2,0-3.602,1.602-3.602,3.602
	s1.602,3.602,3.602,3.602C67.3,20.102,68.898,18.5,68.898,16.5z"/>
<path d="M28.898,23.898c2.102,0,3.801,1.699,3.801,3.801c0,2.102-1.699,3.801-3.801,3.801s-3.801-1.699-3.801-3.801
	C25.101,25.602,26.8,23.898,28.898,23.898z M28.898,33.5c3.199,0,5.801-2.602,5.801-5.801c0-3.199-2.602-5.801-5.801-5.801
	c-3.199,0-5.801,2.602-5.801,5.801C23.101,30.898,25.699,33.5,28.898,33.5z"/>
</svg>
