<?xml version="1.0" encoding="utf-8"?>
<!-- Generator: Adobe Illustrator 17.0.0, SVG Export Plug-In . SVG Version: 6.00 Build 0)  -->
<!DOCTYPE svg PUBLIC "-//W3C//DTD SVG 1.1//EN" "http://www.w3.org/Graphics/SVG/1.1/DTD/svg11.dtd">
<svg version="1.1" id="Layer_1" xmlns="http://www.w3.org/2000/svg" xmlns:xlink="http://www.w3.org/1999/xlink" x="0px" y="0px"
	 width="100px" height="100px" viewBox="0 0 100 100" enable-background="new 0 0 100 100" xml:space="preserve">
<path d="M32.672,57.531c-0.676-3.137-0.707-6.648-0.098-10.738C34.344,34.949,40.68,23.914,50,16.402
	c9.32,7.512,15.656,18.547,17.426,30.391c0.609,4.09,0.578,7.605-0.098,10.738c-1.703,7.914-8.484,13.727-16.328,14.188v-7.957
	l5.613-5.613c0.391-0.391,0.391-1.023,0-1.414c-0.391-0.391-1.023-0.391-1.414,0l-4.199,4.203v-6.063l5.613-5.613
	c0.391-0.391,0.391-1.023,0-1.414c-0.391-0.391-1.023-0.391-1.414,0l-4.199,4.199v-6.063l5.613-5.613
	c0.391-0.391,0.391-1.023,0-1.414c-0.391-0.391-1.023-0.391-1.414,0l-4.199,4.199v-13.5c0-0.555-0.445-1-1-1s-1,0.445-1,1V43.16
	l-4.199-4.199c-0.391-0.391-1.023-0.391-1.414,0c-0.391,0.391-0.391,1.023,0,1.414l5.613,5.609v6.063l-4.199-4.199
	c-0.391-0.391-1.023-0.391-1.414,0s-0.391,1.023,0,1.414l5.613,5.613v6.063l-4.199-4.199c-0.391-0.391-1.023-0.391-1.414,0
	c-0.391,0.391-0.391,1.023,0,1.414l5.613,5.613v7.957c-7.844-0.465-14.625-6.277-16.328-14.191L32.672,57.531z M50,85.82
	c0.555,0,1-0.445,1-1V73.718c8.781-0.465,16.383-6.938,18.281-15.766c0.73-3.379,0.77-7.125,0.121-11.457
	c-1.879-12.574-8.699-24.277-18.723-32.105c-0.176-0.137-0.395-0.211-0.613-0.211h-0.137c-0.223,0-0.438,0.074-0.613,0.211
	c-10.02,7.828-16.844,19.531-18.719,32.105c-0.648,4.332-0.609,8.078,0.117,11.457c1.902,8.828,9.504,15.305,18.285,15.766V84.82
	C48.999,85.375,49.444,85.82,50,85.82L50,85.82z"/>
</svg>
