<?xml version="1.0" encoding="utf-8"?>
<!-- Generator: Adobe Illustrator 17.0.0, SVG Export Plug-In . SVG Version: 6.00 Build 0)  -->
<!DOCTYPE svg PUBLIC "-//W3C//DTD SVG 1.1//EN" "http://www.w3.org/Graphics/SVG/1.1/DTD/svg11.dtd">
<svg version="1.1" id="Layer_1" xmlns="http://www.w3.org/2000/svg" xmlns:xlink="http://www.w3.org/1999/xlink" x="0px" y="0px"
	 width="100px" height="100px" viewBox="0 0 100 100" enable-background="new 0 0 100 100" xml:space="preserve">
<path d="M77.85,60.528l4.273-15.758c0.754,1.621,1.176,3.43,1.176,5.332C83.303,54.414,81.143,58.227,77.85,60.528z M57.87,50.102
	c0-7.012,5.703-12.715,12.715-12.715c2.359,0,4.57,0.648,6.465,1.773l-7.113,23.641C63.225,62.461,57.87,56.895,57.87,50.102
	L57.87,50.102z M37.597,60.223l4.063-14.984c0.621,1.496,0.969,3.141,0.969,4.859C42.628,54.227,40.651,57.899,37.597,60.223
	L37.597,60.223z M17.195,50.102c0-7.012,5.703-12.715,12.715-12.715c2.359,0,4.57,0.648,6.465,1.773l-7.113,23.641
	C22.55,62.461,17.195,56.895,17.195,50.102L17.195,50.102z M40.445,42.984l-5.039,18.582c-1.32,0.637-2.766,1.047-4.289,1.191
	l6.785-22.539C38.878,41.008,39.737,41.941,40.445,42.984z M80.879,42.645l-5.184,19.098c-1.215,0.535-2.527,0.887-3.902,1.016
	l6.785-22.539C79.445,40.922,80.218,41.739,80.879,42.645L80.879,42.645z M86.988,47.75h-1.039c-0.371,0-0.723,0.098-1.035,0.254
	c-1.019-6.992-7.055-12.379-14.324-12.379c-7.688,0-13.992,6.023-14.449,13.598l-11.777-0.004
	c-0.457-7.574-6.762-13.598-14.449-13.598c-7.238,0-13.254,5.34-14.312,12.289c-0.262-0.102-0.539-0.16-0.832-0.16h-1.039
	c-1.293,0-2.352,1.059-2.352,2.352s1.059,2.352,2.352,2.352h1.039c0.293,0,0.574-0.063,0.832-0.16
	c1.059,6.949,7.074,12.289,14.312,12.289c7.688,0,13.992-6.023,14.449-13.598h11.777c0.457,7.574,6.762,13.598,14.449,13.598
	c7.27,0,13.305-5.387,14.324-12.379c0.313,0.156,0.664,0.254,1.035,0.254h1.039c1.293,0,2.352-1.059,2.352-2.352
	C89.34,48.808,88.281,47.75,86.988,47.75L86.988,47.75z"/>
</svg>
